# xmcd CD database file
# 
# Track frame offsets:
# 150
# 15905
# 37865
# 53895
# 67725
# 81207
# 
# Disc length: 1226 seconds
#
# 
# Revision: 0
# Processed by: cddbd v1.4b41PL1 Copyright (c) Steve Scherf et al.
# Submitted via: SuperSonic v3.0
# 
DISCID=3704c806
DTITLE=Various Artist - HEART BREAKERS
DYEAR=1900
DGENRE=
TTITLE0=IN ANOTHER LIFETIME
TTITLE1=IN ANOTHER LIFETIME
TTITLE2=IT'S OUT OF MY HANDS
TTITLE3=CADILLAC
TTITLE4=YOU DON'T KNOW WHAT YOU'VE GOT (UNTIL YOU LOSE IT)
TTITLE5=HEART TO HEART TALK
EXTD=
EXTT0=
EXTT1=
EXTT2=
EXTT3=
EXTT4=
EXTT5=
PLAYORDER=
